<svg width="38" height="38" viewBox="0 0 38 38" fill="none" xmlns="http://www.w3.org/2000/svg">
<rect x="0.5" y="0.5" width="37" height="37" rx="7.5" fill="white" stroke="#959EAD"/>
<path d="M19.6875 26.5625V12.8472L24.6898 18.0991C24.9517 18.3741 25.3869 18.3847 25.6619 18.1227C25.9366 17.8612 25.9476 17.4259 25.6856 17.1506L19.9725 11.1529C19.7126 10.8933 19.3674 10.75 19 10.75C18.6329 10.75 18.2874 10.8933 18.0162 11.1649L12.3148 17.1509C12.1879 17.284 12.125 17.4545 12.125 17.625C12.125 17.8065 12.1965 17.988 12.3385 18.1231C12.6135 18.3851 13.0483 18.3744 13.3103 18.0994L18.3125 12.8256V26.5625C18.3125 26.942 18.6205 27.25 19 27.25C19.3795 27.25 19.6875 26.942 19.6875 26.5625Z" fill="#959EAD"/>
</svg>
